<svg width="52" height="8" viewBox="0 0 52 8" fill="none" xmlns="http://www.w3.org/2000/svg">
<path fill-rule="evenodd" clip-rule="evenodd" d="M4.98509 3.28667V6.55152H3.36179H1.73848V5.51632V4.48113H0.869318H0L0.067561 5.93693C0.163722 8.00828 0.125382 7.98487 3.43228 7.98487C5.86508 7.98487 6.03699 7.96496 6.31388 7.64994C6.58227 7.3448 6.61257 6.99188 6.65508 3.66842L6.70193 0.0218189H5.84343H4.98509V3.28667ZM7.3041 3.58369C7.3041 6.94601 7.32203 7.16913 7.62458 7.56522L7.94491 7.98487H11.3237H14.7025L15.0228 7.56522C15.3254 7.16913 15.3433 6.94601 15.3433 3.58369V0.0218189H14.5703H13.7973V3.28667V6.55152H11.3237H8.8501V3.28667V0.0218189H8.0771H7.3041V3.58369ZM15.9911 0.690237L16.039 1.37554L19.0537 1.45517L22.0684 1.5348V2.49036V3.44593L19.0537 3.52556L16.039 3.60519L15.996 5.79503L15.9531 7.98487H16.8077H17.6623V6.48208V4.97945L20.364 4.92929C23.8347 4.86495 23.769 4.91209 23.769 2.49036C23.769 0.00175197 23.9648 0.113553 19.5042 0.0531931L15.9432 0.00509598L15.9911 0.690237ZM24.4647 4.00334V7.98487H25.315H26.1653V4.00334V0.0218189H25.315H24.4647V4.00334ZM26.6291 0.738494V1.45517H28.2524H29.8758V4.72002V7.98487H30.7261H31.5764V4.72002V1.45517H33.1997H34.823V0.738494V0.0218189H30.7261H26.6291V0.738494ZM35.4414 0.658863V1.29591H39.2291H43.0168V0.658863V0.0218189H39.2291H35.4414V0.658863ZM43.6352 0.724161V1.44832L46.6112 1.49148L49.5873 1.5348V2.57V3.60519L46.6112 3.64851L43.6352 3.69167V5.83835V7.98487H44.4082H45.1812V6.47189V4.95891H45.9128C46.6306 4.95891 46.6722 4.98742 48.126 6.47953L49.6076 8L50.7128 7.9527L51.8182 7.90524L50.3549 6.57063C49.55 5.8366 48.8916 5.17359 48.8916 5.09747C48.8916 5.02118 49.2742 4.95891 49.7419 4.95891C51.0682 4.95891 51.2106 4.7291 51.2106 2.58767C51.2106 -0.0297816 51.4411 0.113394 47.1276 0.0506451L43.6352 0V0.724161ZM35.4414 3.92371V4.64039H39.2291H43.0168V3.92371V3.20704H39.2291H35.4414V3.92371ZM35.4414 7.2682V7.98487H39.2291H43.0168V7.2682V6.55152H39.2291H35.4414V7.2682Z" fill="#0069AF"/>
</svg>
